# xmcd
#
# Track frame offsets: 
#        150
#        22180
#        39242
#        60357
#        82050
#        99517
#        122660
#        132995
#        152562
#        172230
#        195480
#        221450
#
# Disc length: 3157 seconds
#
# Revision: 0
# Processed by: cddbd v1.5.1PL0 Copyright (c) Steve Scherf et al.
# Submitted via: ExactAudioCopy v0.95a4
#
DISCID=9f0c530c
DTITLE=Gamblin´  Woman Blues - Paul Geremia
DYEAR=1992
DGENRE=Blues
TTITLE0=Gamblin´ Woman Blues
TTITLE1=Cocaine Princess
TTITLE2=Skin Games Blues
TTITLE3=Nobody´s Sweetheart Now
TTITLE4=Cheater´s Spell
TTITLE5=Blues Around Midnight
TTITLE6=She Moves It Just Right
TTITLE7=Special Rider Blues
TTITLE8=Good Liquor Gonna Carry Me Down
TTITLE9=One More Last Time
TTITLE10=The Things That Used To Matter
TTITLE11=Doctor Jazz
EXTD=
EXTT0=
EXTT1=
EXTT2=
EXTT3=
EXTT4=
EXTT5=
EXTT6=
EXTT7=
EXTT8=
EXTT9=
EXTT10=
EXTT11=
PLAYORDER=
